<?xml version="1.0" encoding="UTF-8"?>
<svg xmlns="http://www.w3.org/2000/svg" xmlns:xlink="http://www.w3.org/1999/xlink" width="4000" height="4000" viewBox="0 0 4000 4000">
<defs>
<linearGradient id="linear-pattern-0" gradientUnits="userSpaceOnUse" x1="0.0154304" y1="0" x2="0.973987" y2="0" gradientTransform="matrix(0.00000019, 4172.94, -4172.94, 0.00000019, 2000, -64.39)">
<stop offset="0" stop-color="rgb(100%, 100%, 100%)" stop-opacity="1"/>
<stop offset="0.0625" stop-color="rgb(100%, 100%, 100%)" stop-opacity="1"/>
<stop offset="0.078125" stop-color="rgb(99.865723%, 99.95575%, 99.990845%)" stop-opacity="1"/>
<stop offset="0.09375" stop-color="rgb(99.668884%, 99.893188%, 99.978638%)" stop-opacity="1"/>
<stop offset="0.125" stop-color="rgb(99.499512%, 99.734497%, 99.822998%)" stop-opacity="1"/>
<stop offset="0.15625" stop-color="rgb(99.287415%, 99.465942%, 99.525452%)" stop-opacity="1"/>
<stop offset="0.171875" stop-color="rgb(99.118042%, 99.31488%, 99.378967%)" stop-opacity="1"/>
<stop offset="0.1875" stop-color="rgb(98.922729%, 99.252319%, 99.36676%)" stop-opacity="1"/>
<stop offset="0.203125" stop-color="rgb(98.791504%, 99.163818%, 99.293518%)" stop-opacity="1"/>
<stop offset="0.21875" stop-color="rgb(98.742676%, 98.947144%, 99.008179%)" stop-opacity="1"/>
<stop offset="0.25" stop-color="rgb(98.536682%, 98.728943%, 98.782349%)" stop-opacity="1"/>
<stop offset="0.28125" stop-color="rgb(98.176575%, 98.434448%, 98.678589%)" stop-opacity="1"/>
<stop offset="0.296875" stop-color="rgb(97.966003%, 98.168945%, 98.406982%)" stop-opacity="1"/>
<stop offset="0.3125" stop-color="rgb(97.956848%, 98.147583%, 98.207092%)" stop-opacity="1"/>
<stop offset="0.328125" stop-color="rgb(97.802734%, 98.098755%, 98.179626%)" stop-opacity="1"/>
<stop offset="0.34375" stop-color="rgb(97.608948%, 98.036194%, 98.167419%)" stop-opacity="1"/>
<stop offset="0.359375" stop-color="rgb(97.557068%, 97.894287%, 98.10791%)" stop-opacity="1"/>
<stop offset="0.375" stop-color="rgb(97.422791%, 97.65625%, 97.895813%)" stop-opacity="1"/>
<stop offset="0.40625" stop-color="rgb(97.224426%, 97.521973%, 97.663879%)" stop-opacity="1"/>
<stop offset="0.421875" stop-color="rgb(97.05658%, 97.381592%, 97.541809%)" stop-opacity="1"/>
<stop offset="0.4375" stop-color="rgb(96.847534%, 97.123718%, 97.370911%)" stop-opacity="1"/>
<stop offset="0.46875" stop-color="rgb(96.678162%, 96.957397%, 97.123718%)" stop-opacity="1"/>
<stop offset="0.5" stop-color="rgb(96.481323%, 96.859741%, 96.980286%)" stop-opacity="1"/>
<stop offset="0.515625" stop-color="rgb(96.305847%, 96.617126%, 96.865845%)" stop-opacity="1"/>
<stop offset="0.53125" stop-color="rgb(96.101379%, 96.385193%, 96.594238%)" stop-opacity="1"/>
<stop offset="0.5625" stop-color="rgb(95.913696%, 96.144104%, 96.334839%)" stop-opacity="1"/>
<stop offset="0.59375" stop-color="rgb(95.741272%, 95.895386%, 96.084595%)" stop-opacity="1"/>
<stop offset="0.625" stop-color="rgb(95.397949%, 95.635986%, 95.812988%)" stop-opacity="1"/>
<stop offset="0.640625" stop-color="rgb(95.15686%, 95.367432%, 95.558167%)" stop-opacity="1"/>
<stop offset="0.65625" stop-color="rgb(95.097351%, 95.28656%, 95.341492%)" stop-opacity="1"/>
<stop offset="0.671875" stop-color="rgb(94.985962%, 95.147705%, 95.225525%)" stop-opacity="1"/>
<stop offset="0.6875" stop-color="rgb(94.779968%, 94.894409%, 95.042419%)" stop-opacity="1"/>
<stop offset="0.703125" stop-color="rgb(94.60144%, 94.744873%, 94.805908%)" stop-opacity="1"/>
<stop offset="0.71875" stop-color="rgb(94.40155%, 94.610596%, 94.668579%)" stop-opacity="1"/>
<stop offset="0.734375" stop-color="rgb(94.218445%, 94.366455%, 94.517517%)" stop-opacity="1"/>
<stop offset="0.75" stop-color="rgb(94.017029%, 94.180298%, 94.270325%)" stop-opacity="1"/>
<stop offset="0.765625" stop-color="rgb(93.844604%, 94.122314%, 94.132996%)" stop-opacity="1"/>
<stop offset="0.78125" stop-color="rgb(93.649292%, 94.035339%, 94.111633%)" stop-opacity="1"/>
<stop offset="0.796875" stop-color="rgb(93.464661%, 93.79425%, 94.004822%)" stop-opacity="1"/>
<stop offset="0.8125" stop-color="rgb(93.261719%, 93.565369%, 93.739319%)" stop-opacity="1"/>
<stop offset="0.84375" stop-color="rgb(93.075562%, 93.331909%, 93.486023%)" stop-opacity="1"/>
<stop offset="0.859375" stop-color="rgb(92.897034%, 93.086243%, 93.235779%)" stop-opacity="1"/>
<stop offset="0.875" stop-color="rgb(92.701721%, 93.003845%, 93.034363%)" stop-opacity="1"/>
<stop offset="0.90625" stop-color="rgb(92.533875%, 92.819214%, 92.817688%)" stop-opacity="1"/>
<stop offset="0.9375" stop-color="rgb(92.329407%, 92.565918%, 92.541504%)" stop-opacity="1"/>
<stop offset="0.953125" stop-color="rgb(92.158508%, 92.359924%, 92.411804%)" stop-opacity="1"/>
<stop offset="0.96875" stop-color="rgb(91.955566%, 92.112732%, 92.236328%)" stop-opacity="1"/>
<stop offset="0.984375" stop-color="rgb(91.778564%, 91.964722%, 92.00592%)" stop-opacity="1"/>
<stop offset="1" stop-color="rgb(91.584778%, 91.902161%, 91.900635%)" stop-opacity="1"/>
</linearGradient>
</defs>
<rect x="-400" y="-400" width="4800" height="4800" fill="url(#linear-pattern-0)"/>
<path fill-rule="nonzero" fill="rgb(6.266785%, 5.734253%, 5.047607%)" fill-opacity="1" d="M 770.34375 2688.78125 C 749.710938 2668.75 739.398438 2643.328125 739.398438 2612.539062 C 739.398438 2581.75 749.710938 2556.328125 770.34375 2536.300781 C 790.96875 2516.261719 816.183594 2506.238281 845.992188 2506.238281 C 869.089844 2506.238281 889.613281 2512.359375 907.578125 2524.601562 C 925.539062 2536.839844 938.078125 2553.820312 945.183594 2575.53125 L 884.78125 2575.53125 C 876.882812 2560.328125 864.25 2552.730469 846.882812 2552.730469 C 829.507812 2552.730469 815.839844 2558.160156 805.871094 2569.011719 C 795.902344 2579.871094 790.917969 2594.378906 790.917969 2612.539062 C 790.917969 2630.699219 795.902344 2645.210938 805.871094 2656.070312 C 815.839844 2666.921875 829.507812 2672.351562 846.882812 2672.351562 C 864.25 2672.351562 876.882812 2664.75 884.78125 2649.550781 L 945.183594 2649.550781 C 938.078125 2671.269531 925.539062 2688.238281 907.578125 2700.480469 C 889.613281 2712.71875 869.089844 2718.839844 845.992188 2718.839844 C 816.183594 2718.839844 790.96875 2708.820312 770.34375 2688.78125 "/>
<path fill-rule="nonzero" fill="rgb(6.266785%, 5.734253%, 5.047607%)" fill-opacity="1" d="M 1112.03125 2656.070312 C 1121.988281 2645.210938 1126.980469 2630.699219 1126.980469 2612.539062 C 1126.980469 2594.378906 1121.988281 2579.871094 1112.03125 2569.011719 C 1102.058594 2558.160156 1088.730469 2552.730469 1072.058594 2552.730469 C 1055.371094 2552.730469 1042.050781 2558.160156 1032.089844 2569.011719 C 1022.109375 2579.871094 1017.128906 2594.378906 1017.128906 2612.539062 C 1017.128906 2630.699219 1022.109375 2645.210938 1032.089844 2656.070312 C 1042.050781 2666.921875 1055.371094 2672.351562 1072.058594 2672.351562 C 1088.730469 2672.351562 1102.058594 2666.921875 1112.03125 2656.070312 Z M 996.554688 2688.929688 C 975.921875 2668.800781 965.613281 2643.328125 965.613281 2612.539062 C 965.613281 2581.75 975.921875 2556.328125 996.554688 2536.300781 C 1017.179688 2516.261719 1042.449219 2506.238281 1072.351562 2506.238281 C 1102.261719 2506.238281 1127.429688 2516.261719 1147.859375 2536.300781 C 1168.289062 2556.328125 1178.5 2581.75 1178.5 2612.539062 C 1178.5 2643.328125 1168.238281 2668.800781 1147.710938 2688.929688 C 1127.179688 2709.070312 1102.011719 2719.128906 1072.210938 2719.128906 C 1042.398438 2719.128906 1017.179688 2709.070312 996.554688 2688.929688 "/>
<path fill-rule="nonzero" fill="rgb(6.266785%, 5.734253%, 5.047607%)" fill-opacity="1" d="M 1446.460938 2509.210938 L 1446.460938 2717.058594 L 1395.828125 2717.058594 L 1395.828125 2599.808594 L 1347.570312 2717.058594 L 1309.960938 2717.058594 L 1261.699219 2599.808594 L 1261.699219 2717.058594 L 1211.070312 2717.058594 L 1211.070312 2509.210938 L 1269.101562 2509.210938 L 1328.910156 2652.511719 L 1388.429688 2509.210938 L 1446.460938 2509.210938 "/>
<path fill-rule="nonzero" fill="rgb(6.266785%, 5.734253%, 5.047607%)" fill-opacity="1" d="M 1541.511719 2597.738281 L 1572.890625 2597.738281 C 1580.589844 2597.738281 1586.660156 2595.46875 1591.101562 2590.929688 C 1595.539062 2586.390625 1597.761719 2580.410156 1597.761719 2573.011719 C 1597.761719 2565.609375 1595.488281 2559.539062 1590.949219 2554.800781 C 1586.410156 2550.058594 1580.390625 2547.699219 1572.890625 2547.699219 L 1541.511719 2547.699219 Z M 1649.28125 2572.859375 C 1649.28125 2586.878906 1644.25 2600.398438 1634.179688 2613.429688 C 1628.851562 2620.140625 1620.898438 2625.621094 1610.351562 2629.859375 C 1599.789062 2634.109375 1587.300781 2636.230469 1572.890625 2636.230469 L 1541.511719 2636.230469 L 1541.511719 2717.058594 L 1490.871094 2717.058594 L 1490.871094 2509.210938 L 1572.890625 2509.210938 C 1596.96875 2509.210938 1615.71875 2515.421875 1629.148438 2527.859375 C 1642.570312 2540.289062 1649.28125 2555.300781 1649.28125 2572.859375 "/>
<path fill-rule="nonzero" fill="rgb(6.266785%, 5.734253%, 5.047607%)" fill-opacity="1" d="M 1738.398438 2643.628906 L 1787.550781 2643.628906 L 1762.980469 2569.609375 Z M 1811.828125 2717.058594 L 1800.289062 2682.121094 L 1725.671875 2682.121094 L 1714.121094 2717.058594 L 1660.230469 2717.058594 L 1732.480469 2508.609375 L 1794.070312 2508.609375 L 1866.019531 2717.058594 L 1811.828125 2717.058594 "/>
<path fill-rule="nonzero" fill="rgb(6.266785%, 5.734253%, 5.047607%)" fill-opacity="1" d="M 2026.199219 2508.609375 L 2076.828125 2508.609375 L 2076.828125 2717.058594 L 2026.199219 2717.058594 L 1941.519531 2585.890625 L 1941.519531 2717.058594 L 1890.890625 2717.058594 L 1890.890625 2508.609375 L 1941.519531 2508.609375 L 2026.199219 2639.78125 L 2026.199219 2508.609375 "/>
<path fill-rule="nonzero" fill="rgb(6.266785%, 5.734253%, 5.047607%)" fill-opacity="1" d="M 2226.058594 2717.058594 L 2175.429688 2717.058594 L 2175.429688 2650.140625 L 2103.480469 2509.210938 L 2160.921875 2509.210938 L 2200.898438 2603.070312 L 2240.570312 2509.210938 L 2298.011719 2509.210938 L 2226.058594 2650.140625 L 2226.058594 2717.058594 "/>
<path fill-rule="nonzero" fill="rgb(6.266785%, 5.734253%, 5.047607%)" fill-opacity="1" d="M 2548.800781 2508.609375 L 2599.429688 2508.609375 L 2599.429688 2717.058594 L 2548.800781 2717.058594 L 2464.121094 2585.890625 L 2464.121094 2717.058594 L 2413.488281 2717.058594 L 2413.488281 2508.609375 L 2464.121094 2508.609375 L 2548.800781 2639.78125 L 2548.800781 2508.609375 "/>
<path fill-rule="nonzero" fill="rgb(6.266785%, 5.734253%, 5.047607%)" fill-opacity="1" d="M 2702.46875 2643.628906 L 2751.621094 2643.628906 L 2727.050781 2569.609375 Z M 2775.898438 2717.058594 L 2764.351562 2682.121094 L 2689.738281 2682.121094 L 2678.191406 2717.058594 L 2624.300781 2717.058594 L 2696.550781 2508.609375 L 2758.140625 2508.609375 L 2830.089844 2717.058594 L 2775.898438 2717.058594 "/>
<path fill-rule="nonzero" fill="rgb(6.266785%, 5.734253%, 5.047607%)" fill-opacity="1" d="M 3090.351562 2509.210938 L 3090.351562 2717.058594 L 3039.71875 2717.058594 L 3039.71875 2599.808594 L 2991.460938 2717.058594 L 2953.851562 2717.058594 L 2905.589844 2599.808594 L 2905.589844 2717.058594 L 2854.960938 2717.058594 L 2854.960938 2509.210938 L 2912.988281 2509.210938 L 2972.800781 2652.511719 L 3032.320312 2509.210938 L 3090.351562 2509.210938 "/>
<path fill-rule="nonzero" fill="rgb(6.266785%, 5.734253%, 5.047607%)" fill-opacity="1" d="M 3260.601562 2508.609375 L 3260.601562 2547.101562 L 3185.390625 2547.101562 L 3185.390625 2591.808594 L 3251.71875 2591.808594 L 3251.71875 2630.308594 L 3185.390625 2630.308594 L 3185.390625 2678.570312 L 3260.601562 2678.570312 L 3260.601562 2717.058594 L 3134.761719 2717.058594 L 3134.761719 2508.609375 L 3260.601562 2508.609375 "/>
<path fill-rule="nonzero" fill="rgb(6.266785%, 5.734253%, 5.047607%)" fill-opacity="1" d="M 1462.609375 2812.871094 L 1419.378906 2896.140625 L 1419.378906 2943.5 L 1397.949219 2943.5 L 1397.949219 2896.140625 L 1354.53125 2812.871094 L 1378.410156 2812.871094 L 1408.671875 2876.960938 L 1438.929688 2812.871094 L 1462.609375 2812.871094 "/>
<path fill-rule="nonzero" fill="rgb(6.266785%, 5.734253%, 5.047607%)" fill-opacity="1" d="M 1562.230469 2920.289062 C 1569 2916.339844 1574.289062 2910.699219 1578.109375 2903.371094 C 1581.929688 2896.039062 1583.851562 2887.558594 1583.851562 2877.898438 C 1583.851562 2868.261719 1581.929688 2859.800781 1578.109375 2852.53125 C 1574.289062 2845.261719 1569 2839.691406 1562.230469 2835.800781 C 1555.460938 2831.921875 1547.761719 2829.96875 1539.109375 2829.96875 C 1530.460938 2829.96875 1522.761719 2831.921875 1515.988281 2835.800781 C 1509.230469 2839.691406 1503.929688 2845.261719 1500.109375 2852.53125 C 1496.28125 2859.800781 1494.378906 2868.261719 1494.378906 2877.898438 C 1494.378906 2887.558594 1496.28125 2896.039062 1500.109375 2903.371094 C 1503.929688 2910.699219 1509.230469 2916.339844 1515.988281 2920.289062 C 1522.761719 2924.238281 1530.460938 2926.210938 1539.109375 2926.210938 C 1547.761719 2926.210938 1555.460938 2924.238281 1562.230469 2920.289062 Z M 1505.558594 2936.269531 C 1495.351562 2930.570312 1487.261719 2922.609375 1481.308594 2912.390625 C 1475.359375 2902.179688 1472.378906 2890.691406 1472.378906 2877.898438 C 1472.378906 2865.121094 1475.359375 2853.660156 1481.308594 2843.511719 C 1487.261719 2833.359375 1495.351562 2825.429688 1505.558594 2819.730469 C 1515.769531 2814.03125 1526.949219 2811.179688 1539.109375 2811.179688 C 1551.390625 2811.179688 1562.640625 2814.03125 1572.851562 2819.730469 C 1583.058594 2825.429688 1591.109375 2833.359375 1597 2843.511719 C 1602.890625 2853.660156 1605.839844 2865.121094 1605.839844 2877.898438 C 1605.839844 2890.691406 1602.890625 2902.179688 1597 2912.390625 C 1591.109375 2922.609375 1583.058594 2930.570312 1572.851562 2936.269531 C 1562.640625 2941.96875 1551.390625 2944.820312 1539.109375 2944.820312 C 1526.949219 2944.820312 1515.769531 2941.96875 1505.558594 2936.269531 "/>
<path fill-rule="nonzero" fill="rgb(6.266785%, 5.734253%, 5.047607%)" fill-opacity="1" d="M 1648.128906 2812.871094 L 1648.128906 2896.140625 C 1648.128906 2906.039062 1650.730469 2913.488281 1655.929688 2918.5 C 1661.128906 2923.519531 1668.359375 2926.019531 1677.640625 2926.019531 C 1687.039062 2926.019531 1694.328125 2923.519531 1699.539062 2918.5 C 1704.730469 2913.488281 1707.339844 2906.039062 1707.339844 2896.140625 L 1707.339844 2812.871094 L 1728.761719 2812.871094 L 1728.761719 2895.761719 C 1728.761719 2906.410156 1726.441406 2915.429688 1721.808594 2922.828125 C 1717.171875 2930.21875 1710.96875 2935.730469 1703.199219 2939.371094 C 1695.429688 2943 1686.851562 2944.820312 1677.449219 2944.820312 C 1668.050781 2944.820312 1659.5 2943 1651.789062 2939.371094 C 1644.089844 2935.730469 1637.980469 2930.21875 1633.46875 2922.828125 C 1628.960938 2915.429688 1626.699219 2906.410156 1626.699219 2895.761719 L 1626.699219 2812.871094 L 1648.128906 2812.871094 "/>
<path fill-rule="nonzero" fill="rgb(6.266785%, 5.734253%, 5.047607%)" fill-opacity="1" d="M 1778.011719 2874.140625 L 1801.691406 2874.140625 C 1809.710938 2874.140625 1815.761719 2872.140625 1819.828125 2868.128906 C 1823.898438 2864.121094 1825.941406 2858.730469 1825.941406 2851.96875 C 1825.941406 2845.199219 1823.929688 2839.910156 1819.921875 2836.078125 C 1815.910156 2832.261719 1809.828125 2830.351562 1801.691406 2830.351562 L 1778.011719 2830.351562 Z M 1824.429688 2943.5 L 1794.359375 2891.25 L 1778.011719 2891.25 L 1778.011719 2943.5 L 1756.578125 2943.5 L 1756.578125 2812.871094 L 1801.691406 2812.871094 C 1811.710938 2812.871094 1820.199219 2814.628906 1827.160156 2818.128906 C 1834.109375 2821.640625 1839.308594 2826.339844 1842.761719 2832.230469 C 1846.199219 2838.121094 1847.929688 2844.699219 1847.929688 2851.96875 C 1847.929688 2860.488281 1845.449219 2868.21875 1840.5 2875.179688 C 1835.550781 2882.128906 1827.941406 2886.859375 1817.671875 2889.371094 L 1850 2943.5 L 1824.429688 2943.5 "/>
<path fill-rule="nonzero" fill="rgb(6.266785%, 5.734253%, 5.047607%)" fill-opacity="1" d="M 2008.628906 2812.871094 L 2008.628906 2830.351562 L 1973.859375 2830.351562 L 1973.859375 2943.5 L 1952.429688 2943.5 L 1952.429688 2830.351562 L 1917.46875 2830.351562 L 1917.46875 2812.871094 L 2008.628906 2812.871094 "/>
<path fill-rule="nonzero" fill="rgb(6.266785%, 5.734253%, 5.047607%)" fill-opacity="1" d="M 2102.988281 2899.328125 L 2081.75 2838.621094 L 2060.320312 2899.328125 Z M 2109 2916.808594 L 2054.308594 2916.808594 L 2044.910156 2943.5 L 2022.539062 2943.5 L 2069.339844 2812.679688 L 2094.148438 2812.679688 L 2140.960938 2943.5 L 2118.398438 2943.5 L 2109 2916.808594 "/>
<path fill-rule="nonzero" fill="rgb(6.266785%, 5.734253%, 5.047607%)" fill-opacity="1" d="M 2255.800781 2850.460938 C 2252.421875 2843.949219 2247.71875 2839.03125 2241.699219 2835.710938 C 2235.691406 2832.390625 2228.730469 2830.730469 2220.839844 2830.730469 C 2212.191406 2830.730469 2204.488281 2832.671875 2197.71875 2836.550781 C 2190.949219 2840.441406 2185.660156 2845.949219 2181.839844 2853.089844 C 2178.011719 2860.238281 2176.101562 2868.511719 2176.101562 2877.898438 C 2176.101562 2887.300781 2178.011719 2895.601562 2181.839844 2902.808594 C 2185.660156 2910.019531 2190.949219 2915.558594 2197.71875 2919.441406 C 2204.488281 2923.328125 2212.191406 2925.269531 2220.839844 2925.269531 C 2232.488281 2925.269531 2241.949219 2922.011719 2249.21875 2915.5 C 2256.488281 2908.980469 2260.941406 2900.148438 2262.570312 2888.988281 L 2213.511719 2888.988281 L 2213.511719 2871.890625 L 2285.5 2871.890625 L 2285.5 2888.621094 C 2284.121094 2898.769531 2280.519531 2908.101562 2274.691406 2916.621094 C 2268.859375 2925.148438 2261.28125 2931.941406 2251.949219 2937.019531 C 2242.609375 2942.089844 2232.238281 2944.628906 2220.839844 2944.628906 C 2208.558594 2944.628906 2197.339844 2941.78125 2187.191406 2936.078125 C 2177.039062 2930.378906 2168.988281 2922.449219 2163.039062 2912.300781 C 2157.089844 2902.148438 2154.109375 2890.691406 2154.109375 2877.898438 C 2154.109375 2865.121094 2157.089844 2853.660156 2163.039062 2843.511719 C 2168.988281 2833.359375 2177.070312 2825.429688 2187.289062 2819.730469 C 2197.5 2814.03125 2208.679688 2811.179688 2220.839844 2811.179688 C 2234.75 2811.179688 2247.121094 2814.589844 2257.960938 2821.421875 C 2268.800781 2828.25 2276.660156 2837.929688 2281.550781 2850.460938 L 2255.800781 2850.460938 "/>
<path fill-rule="nonzero" fill="rgb(6.266785%, 5.734253%, 5.047607%)" fill-opacity="1" d="M 2327.980469 2926.210938 L 2372.148438 2926.210938 L 2372.148438 2943.5 L 2306.550781 2943.5 L 2306.550781 2812.871094 L 2327.980469 2812.871094 L 2327.980469 2926.210938 "/>
<path fill-rule="nonzero" fill="rgb(6.266785%, 5.734253%, 5.047607%)" fill-opacity="1" d="M 2411.429688 2812.871094 L 2411.429688 2943.5 L 2390 2943.5 L 2390 2812.871094 L 2411.429688 2812.871094 "/>
<path fill-rule="nonzero" fill="rgb(6.266785%, 5.734253%, 5.047607%)" fill-opacity="1" d="M 2546.949219 2943.5 L 2525.519531 2943.5 L 2461.050781 2845.949219 L 2461.050781 2943.5 L 2439.621094 2943.5 L 2439.621094 2812.679688 L 2461.050781 2812.679688 L 2525.519531 2910.050781 L 2525.519531 2812.679688 L 2546.949219 2812.679688 L 2546.949219 2943.5 "/>
<path fill-rule="nonzero" fill="rgb(6.266785%, 5.734253%, 5.047607%)" fill-opacity="1" d="M 2596.570312 2830.160156 L 2596.570312 2868.511719 L 2641.679688 2868.511719 L 2641.679688 2885.988281 L 2596.570312 2885.988281 L 2596.570312 2926.019531 L 2647.320312 2926.019531 L 2647.320312 2943.5 L 2575.140625 2943.5 L 2575.140625 2812.679688 L 2647.320312 2812.679688 L 2647.320312 2830.160156 L 2596.570312 2830.160156 "/>
<path fill-rule="nonzero" fill="rgb(15.705872%, 47.23053%, 21.3974%)" fill-opacity="1" d="M 1057.628906 1415.878906 C 1185 1393.359375 1249.761719 1523.941406 1249.761719 1523.941406 C 1474.261719 1120.949219 1828.28125 1494.679688 1828.28125 1494.679688 C 1599.410156 1468.761719 1466.429688 1575.890625 1397.148438 1664.371094 C 1314.289062 1663.078125 1121.421875 1644.359375 984.238281 1508.179688 C 984.238281 1508.179688 982.316406 1660.738281 1351.03125 1735.03125 C 1339.199219 1757.230469 1333.949219 1771.601562 1333.949219 1771.601562 C 874.148438 1737.820312 871.988281 1368.601562 871.988281 1368.601562 C 871.988281 1368.601562 930.273438 1438.390625 1057.628906 1415.878906 "/>
<path fill-rule="nonzero" fill="rgb(96.437073%, 53.29895%, 8.108521%)" fill-opacity="1" d="M 1899.410156 1855.03125 L 2138.78125 1668.871094 C 2046.320312 1647.25 1982.371094 1652.148438 1910.910156 1658.128906 L 1882.078125 1660.429688 C 1733.339844 1671.78125 1598.089844 1773.300781 1511.601562 1855.03125 Z M 2206.25 1855.03125 L 2607.398438 1855.03125 C 2557.109375 1844.449219 2514.171875 1828.191406 2483.808594 1812.089844 C 2453.601562 1796.140625 2425.691406 1782.191406 2399.160156 1769 Z M 2852.300781 1970.191406 L 1938.820312 1970.191406 L 1937.441406 1971.261719 L 1936.671875 1970.191406 L 1517.578125 1970.191406 C 1528.78125 2118.480469 1616.03125 2234.859375 1723.058594 2234.859375 L 2646.96875 2234.859375 C 2754 2234.859375 2841.410156 2118.480469 2852.300781 1970.191406 Z M 3081.089844 1338.871094 L 3128.011719 1443.910156 L 2534.410156 1708.738281 C 2535.488281 1709.351562 2536.558594 1709.808594 2537.789062 1710.421875 C 2540.089844 1711.648438 2771.640625 1831.261719 2964.390625 1662.429688 L 3040.300781 1749.070312 C 2973.898438 1807.03125 2902.589844 1839.390625 2832.671875 1855.03125 L 3086.148438 1855.03125 L 3086.148438 1970.191406 L 2968.53125 1970.191406 C 2956.109375 2182.269531 2816.71875 2350.03125 2647.121094 2350.03125 L 1723.058594 2350.03125 C 1553.460938 2350.03125 1414.230469 2182.269531 1401.648438 1970.191406 L 1283.878906 1970.191406 L 1283.878906 1855.03125 L 1351.660156 1855.03125 C 1425.421875 1770.230469 1628.140625 1564.441406 1873.191406 1545.730469 L 1901.398438 1543.28125 C 2001.539062 1535 2092.78125 1527.640625 2251.03125 1581.609375 L 2927.738281 1055.179688 L 2998.429688 1146.109375 L 2375.089844 1630.839844 C 2383.519531 1634.671875 2391.949219 1638.351562 2400.699219 1642.339844 L 3081.089844 1338.871094 "/>
</svg>
